<mxfile host="app.diagrams.net" modified="2023-07-17T11:09:18.148Z" agent="Mozilla/5.0 (Macintosh; Intel Mac OS X 10_15_7) AppleWebKit/537.36 (KHTML, like Gecko) Chrome/114.0.0.0 Safari/537.36" version="21.6.2" etag="wUJfzhB3qxa6bXPo0Zgu" type="github">
  <diagram name="第 1 页" id="mD8ahaFPo7a6ZMi-6454">
    <mxGraphModel>
      <root>
        <mxCell id="0" />
        <mxCell id="1" parent="0" />
      </root>
    </mxGraphModel>
  </diagram>
</mxfile>
